<?xml version="1.0" encoding="iso-8859-1"?>
<!-- Generator: Adobe Illustrator 19.0.0, SVG Export Plug-In . SVG Version: 6.00 Build 0)  -->
<svg version="1.1" id="Layer_1" xmlns="http://www.w3.org/2000/svg" xmlns:xlink="http://www.w3.org/1999/xlink" x="0px" y="0px"
	 viewBox="0 0 512 512" style="enable-background:new 0 0 512 512;" xml:space="preserve">
<path style="fill:#7CCC92;" d="M389.565,512h-267.13c-27.619,0-50.087-22.468-50.087-50.087V150.261
	c0-9.223,7.479-16.696,16.696-16.696h333.913c9.217,0,16.696,7.473,16.696,16.696v311.652C439.652,489.532,417.184,512,389.565,512z
	"/>
<path style="fill:#34B772;" d="M422.957,133.565H256V512h133.565c27.619,0,50.087-22.468,50.087-50.087V150.261
	C439.652,141.038,432.174,133.565,422.957,133.565z"/>
<path style="fill:#79695A;" d="M356.174,100.174c-9.217,0-16.696-7.473-16.696-16.696V50.087c0-9.206-7.49-16.696-16.696-16.696
	H189.217c-9.206,0-16.696,7.49-16.696,16.696v33.391c0,9.223-7.479,16.696-16.696,16.696s-16.696-7.473-16.696-16.696V50.087
	C139.13,22.468,161.598,0,189.217,0h133.565c27.619,0,50.087,22.468,50.087,50.087v33.391
	C372.87,92.701,365.391,100.174,356.174,100.174z"/>
<path style="fill:#6C5B52;" d="M322.783,0H256v33.391h66.783c9.206,0,16.696,7.49,16.696,16.696v33.391
	c0,9.223,7.479,16.696,16.696,16.696c9.217,0,16.696-7.473,16.696-16.696V50.087C372.87,22.468,350.402,0,322.783,0z"/>
<path style="fill:#DADFF0;" d="M363.283,339.522l-9.913-14.869c-5.13-7.679-15.489-9.739-23.152-4.63
	c-7.674,5.114-9.75,15.478-4.63,23.152l9.913,14.869C342.889,369.117,335,384,321.609,384h-9.296
	c2.759-6.142,1.72-13.564-3.324-18.603c-6.521-6.521-17.087-6.521-23.609,0l-22.915,22.921c-7.469,6.708-7.189,17.805-0.693,24.302
	l23.609,23.609c6.522,6.522,17.086,6.522,23.609,0c5.113-5.109,6.074-12.651,3.171-18.837h9.449
	C361.56,417.391,385.458,372.763,363.283,339.522z"/>
<g>
	<path style="fill:#E7ECFD;" d="M334.805,248.988l-8.682,32.278c-2.337,8.682-11.576,14.581-21.148,11.576l-31.61-8.459
		c-8.904-2.337-14.136-11.576-11.799-20.48c1.891-6.901,7.791-11.464,14.47-12.243l-4.675-7.903
		c-3.338-5.899-9.461-8.682-15.36-8.458c-5.565,0.334-11.019,3.45-14.024,9.35l-7.903,16.028
		c-4.119,8.237-14.136,11.576-22.372,7.569c-8.237-4.118-11.687-14.136-7.568-22.372l7.903-16.028
		c9.015-18.143,26.489-27.492,43.965-27.715c17.141-0.445,34.504,7.903,44.299,24.932l4.675,8.014
		c3.896-5.565,11.019-8.459,17.92-6.567C331.799,230.957,337.141,240.083,334.805,248.988z"/>
	<path style="fill:#E7ECFD;" d="M208.37,381.195l-17.837,1.152c-13.332,0.898-22.202-13.45-15.533-25.006l4.622-8.008
		c4.005,5.525,10.979,8.221,17.791,6.378c8.913-2.386,14.196-11.538,11.815-20.445l-8.416-31.415
		c-2.096-9.638-11.753-15.065-20.683-12.645l-32.25,8.642c-8.902,2.386-14.185,11.538-11.804,20.445
		c1.871,6.973,7.878,11.679,14.679,12.266l-4.668,8.087c-19.984,34.572,6.708,77.62,46.598,75.027l17.837-1.152
		c9.206-0.598,16.174-8.538,15.587-17.74C225.51,387.571,217.456,380.733,208.37,381.195z"/>
</g>
<path style="fill:#DADFF0;" d="M334.805,248.988l-8.682,32.278c-2.337,8.682-11.576,14.581-21.148,11.576l-31.61-8.459
	c-8.904-2.337-14.136-11.576-11.799-20.48c1.891-6.901,7.791-11.464,14.47-12.243l-4.675-7.903
	c-3.338-5.899-9.461-8.682-15.36-8.458V202.13c17.141-0.445,34.504,7.903,44.299,24.932l4.675,8.014
	c3.896-5.565,11.019-8.459,17.92-6.567C331.799,230.957,337.141,240.083,334.805,248.988z"/>
<path style="fill:#E7ECFD;" d="M456.348,166.957H55.652c-9.217,0-16.696-7.473-16.696-16.696V116.87
	c0-27.619,22.468-50.087,50.087-50.087h333.913c27.619,0,50.087,22.468,50.087,50.087v33.391
	C473.043,159.484,465.565,166.957,456.348,166.957z"/>
<path style="fill:#DADFF0;" d="M422.957,66.783H256v100.174h200.348c9.217,0,16.696-7.473,16.696-16.696V116.87
	C473.043,89.25,450.576,66.783,422.957,66.783z"/>
<g>
</g>
<g>
</g>
<g>
</g>
<g>
</g>
<g>
</g>
<g>
</g>
<g>
</g>
<g>
</g>
<g>
</g>
<g>
</g>
<g>
</g>
<g>
</g>
<g>
</g>
<g>
</g>
<g>
</g>
</svg>
